<svg id="Icon_ionic-md-close-circle-outline" data-name="Icon ionic-md-close-circle-outline" xmlns="http://www.w3.org/2000/svg" width="27.722" height="27.722" viewBox="0 0 27.722 27.722">
  <path id="Path_571" data-name="Path 571" d="M17.236,6.174A11.057,11.057,0,1,1,9.413,9.413a11.016,11.016,0,0,1,7.823-3.239m0-2.8A13.861,13.861,0,1,0,31.1,17.236,13.859,13.859,0,0,0,17.236,3.375Z" transform="translate(-3.375 -3.375)" fill="#fff"/>
  <path id="Path_572" data-name="Path 572" d="M24.548,22.609l-1.939,1.939-4.991-4.991-4.991,4.991-1.939-1.939,4.991-4.991-4.991-4.991,1.939-1.939,4.991,4.991,4.991-4.991,1.939,1.939-4.991,4.991Z" transform="translate(-3.757 -3.757)" fill="#fff"/>
</svg>
